<svg xmlns="http://www.w3.org/2000/svg" viewBox="0 0 512 512">
  <rect width="512" height="512" fill="none"/>
  <defs>
    <linearGradient id="red" x1="0" y1="1" x2="1" y2="0">
      <stop offset="0" stop-color="#f2161f"/>
      <stop offset="1" stop-color="#ff3a3a"/>
    </linearGradient>
    <linearGradient id="blue" x1="0" y1="1" x2="1" y2="0">
      <stop offset="0" stop-color="#244fa7"/>
      <stop offset="1" stop-color="#2f70d0"/>
    </linearGradient>
    <linearGradient id="green" x1="0" y1="1" x2="1" y2="0">
      <stop offset="0" stop-color="#45aa3f"/>
      <stop offset="1" stop-color="#70c84a"/>
    </linearGradient>
    <linearGradient id="yellow" x1="0" y1="0" x2="1" y2="1">
      <stop offset="0" stop-color="#ffe325"/>
      <stop offset="1" stop-color="#ffc313"/>
    </linearGradient>
  </defs>
  <path d="M3 492C52 371 49 235 157 98 194 51 232 15 256 0c-24 84-14 164 20 229-80 25-155 93-273 263Z" fill="url(#red)"/>
  <path d="M121 372C177 270 232 217 365 153c-54 75-69 148-78 221-52-26-104-27-166-2Z" fill="url(#blue)" opacity=".9"/>
  <path d="M2 492c109-159 217-212 347-196 71 8 119 4 162-15-76 86-173 142-283 151-92 8-155 24-226 60Z" fill="url(#green)" opacity=".95"/>
  <path d="M2 492c76-58 150-89 227-90 84 0 143 47 280 38-92 43-190 70-292 67-82-2-145-23-215-15Z" fill="url(#yellow)" opacity=".96"/>
</svg>
